<?xml version="1.0" encoding="UTF-8"?>
<svg version="1.1" xmlns="http://www.w3.org/2000/svg" width="1080" height="1080">
<path id="pac-logo" d="M0 0 C0.39155273 0.76328613 0.78310547 1.52657227 1.18652344 2.31298828 C8.17411778 15.91901334 15.19736365 29.49147936 22.57910156 42.88916016 C26.32412115 49.70659883 29.93048128 56.58924266 33.5 63.5 C37.5524731 71.3454726 41.67897235 79.13942983 45.9375 86.875 C51.0469852 96.15881263 55.93342768 105.54788286 60.78662109 114.96777344 C64.92202902 122.97421491 69.18559311 130.89912924 73.53125 138.79296875 C77.2904736 145.64333112 80.91396205 152.55760066 84.5 159.5 C88.57392686 167.38661928 92.72171018 175.22231745 97 183 C101.8542057 191.82466419 106.52229935 200.73556763 111.14453125 209.68359375 C114.67732239 216.50466304 118.29775874 223.26954029 122 230 C126.84485614 238.80766724 131.50814428 247.6993527 136.1159668 256.63305664 C140.40477839 264.9233755 144.84727971 273.12206808 149.39453125 281.2734375 C149.86890625 282.13066406 150.34328125 282.98789062 150.83203125 283.87109375 C151.25202393 284.62318115 151.6720166 285.37526855 152.10473633 286.15014648 C153 288 153 288 153 290 C153.66 290 154.32 290 155 290 C155.22171875 289.20980469 155.4434375 288.41960937 155.671875 287.60546875 C157.40840538 282.89129952 159.79760577 278.68772261 162.25 274.3125 C166.97368172 265.77753474 171.5376532 257.17434722 176 248.5 C180.72257528 239.33211572 185.55792696 230.24101964 190.53125 221.20703125 C194.2904736 214.35666888 197.91396205 207.44239934 201.5 200.5 C206.0443343 191.70273 210.70831904 182.98408491 215.48046875 174.30859375 C219.25487806 167.42351639 222.89651636 160.475865 226.5 153.5 C231.04435211 144.7027388 235.70831875 135.98408543 240.48046875 127.30859375 C244.25487806 120.42351639 247.89651636 113.475865 251.5 106.5 C256.04435211 97.7027388 260.70831875 88.98408543 265.48046875 80.30859375 C269.25487806 73.42351639 272.89651636 66.475865 276.5 59.5 C281.03591708 50.71906788 285.69024242 42.01602344 290.45410156 33.35693359 C296.49454591 22.33905058 302.24357066 11.16814552 308 0 C331.04151208 8.96017788 353.07819151 26.27729985 371 43 C372.34896122 44.19340992 373.70292974 45.38119042 375.0625 46.5625 C376.0215625 47.40167969 376.0215625 47.40167969 377 48.2578125 C378.41168042 49.48751849 379.82889135 50.71088946 381.25 51.9296875 C385.50778033 55.62647651 389.37834144 59.39318777 393.01171875 63.703125 C394.97959486 65.97642785 397.0317484 68.15314559 399.10449219 70.33056641 C414.5744421 86.67982946 427.62327644 105.6198837 439 125 C439.37447266 125.63534668 439.74894531 126.27069336 440.13476562 126.92529297 C456.72878013 155.28584886 468.67266824 185.98364742 476 218 C476.28931396 219.24257568 476.28931396 219.24257568 476.58447266 220.51025391 C477.91229003 226.31120672 479.01140732 232.13236631 480 238 C480.15098145 238.85013672 480.30196289 239.70027344 480.45751953 240.57617188 C483.24696102 256.95774625 483.2905437 273.3680582 483.3125 289.9375 C483.31608521 291.03192413 483.31967041 292.12634827 483.32336426 293.25393677 C483.37855035 324.61108688 479.49562928 356.02729468 470 386 C469.68047363 387.00949707 469.36094727 388.01899414 469.03173828 389.05908203 C456.63726779 427.58498246 438.46404019 463.44290455 413 495 C411.80117187 496.5159375 411.80117187 496.5159375 410.578125 498.0625 C405.79433284 504.0337583 400.704799 509.6759974 395.5 515.27734375 C393.53733489 517.41480872 391.65565074 519.57367288 389.8125 521.8125 C387.26687001 524.81706047 384.44983218 527.31990415 381.44921875 529.86328125 C378.93740528 532.05460815 376.52249128 534.32571712 374.10424805 536.61889648 C367.0795349 543.25882496 359.8136534 549.30812043 352 555 C351.37287109 555.46229004 350.74574219 555.92458008 350.09960938 556.40087891 C324.41675451 575.27235838 296.71379331 589.6056426 267 601 C266.09362793 601.35078613 265.18725586 601.70157227 264.25341797 602.06298828 C242.59634879 610.35674184 219.94105457 614.95095774 197 618 C195.72560059 618.17877686 194.45120117 618.35755371 193.13818359 618.54174805 C179.94302614 620.27928839 166.79233726 620.35706477 153.5 620.3125 C151.76905594 620.30926727 151.76905594 620.30926727 150.00314331 620.30596924 C133.4827511 620.25639846 117.29360272 619.9782854 101 617 C99.86804199 616.80132324 98.73608398 616.60264648 97.56982422 616.39794922 C34.79256673 605.14406997 -23.77796884 576.34525325 -70.23046875 532.58203125 C-72.39935965 530.55997641 -74.58692947 528.63220436 -76.875 526.75 C-79.88853871 524.20572279 -82.39489604 521.37309042 -84.94140625 518.3671875 C-86.93738656 516.07199952 -89.01215075 513.86791219 -91.10888672 511.66503906 C-106.57542527 495.3168331 -119.62750792 476.3794304 -131 457 C-131.37979004 456.35401855 -131.75958008 455.70803711 -132.15087891 455.04248047 C-146.42437418 430.58266476 -157.09163447 404.24721511 -164.48242188 376.91357422 C-164.99084355 375.03385293 -165.51869117 373.15942052 -166.046875 371.28515625 C-168.22744674 363.15833311 -169.77560887 354.99222255 -171.125 346.6875 C-171.28363525 345.71683594 -171.44227051 344.74617188 -171.60571289 343.74609375 C-172.11078591 340.50173612 -172.56605943 337.25466609 -173 334 C-173.0886734 333.33977844 -173.1773468 332.67955688 -173.26870728 331.99932861 C-175.11399351 317.84719499 -175.44030392 303.75970283 -175.4375 289.5 C-175.4385675 288.3406897 -175.43963501 287.18137939 -175.44073486 285.98693848 C-175.41417819 265.91354242 -173.95795429 246.67343881 -170 227 C-169.78069824 225.87964355 -169.56139648 224.75928711 -169.33544922 223.60498047 C-157.50322816 164.9047557 -128.20520161 110.22542546 -87.42578125 66.61328125 C-85.3245519 64.34963804 -83.30819473 62.04359107 -81.3125 59.6875 C-78.54203185 56.49983194 -75.5692673 53.76017986 -72.34765625 51.03515625 C-69.99311373 48.99403037 -67.72981148 46.87969039 -65.46435547 44.74121094 C-58.65077072 38.33245342 -51.55196257 32.51977554 -44 27 C-43.3714209 26.53625977 -42.7428418 26.07251953 -42.09521484 25.59472656 C-31.45587469 17.77774879 -20.40967991 10.82485695 -9.00585938 4.17919922 C-7.33755476 3.19844079 -5.68941249 2.18348318 -4.046875 1.16015625 C-2 0 -2 0 0 0 Z " fill="#fff" transform="translate(386,249)"/>
</svg>
